<svg width="29" height="28" viewBox="0 0 29 28" fill="none" xmlns="http://www.w3.org/2000/svg">
<path d="M18.93 24.3196C18.93 24.5495 18.8387 24.77 18.6761 24.9326C18.5135 25.0952 18.293 25.1866 18.063 25.1866H11.127C10.8971 25.1866 10.6766 25.0952 10.514 24.9326C10.3514 24.77 10.26 24.5495 10.26 24.3196C10.26 24.0896 10.3514 23.8691 10.514 23.7065C10.6766 23.5439 10.8971 23.4526 11.127 23.4526H18.063C18.293 23.4526 18.5135 23.5439 18.6761 23.7065C18.8387 23.8691 18.93 24.0896 18.93 24.3196ZM24.7661 20.8516C24.6156 21.1166 24.3972 21.3366 24.1334 21.489C23.8695 21.6414 23.5698 21.7207 23.2651 21.7186H5.92502C5.6202 21.7182 5.32088 21.6374 5.05722 21.4844C4.79355 21.3315 4.57487 21.1117 4.42321 20.8473C4.27155 20.5829 4.19228 20.2832 4.19337 19.9783C4.19446 19.6735 4.27589 19.3744 4.42945 19.1111C5.03093 18.075 5.92502 15.1445 5.92502 11.3145C5.92502 9.01512 6.83847 6.80986 8.46441 5.18392C10.0904 3.55798 12.2956 2.64453 14.595 2.64453C16.8945 2.64453 19.0997 3.55798 20.7257 5.18392C22.3516 6.80986 23.2651 9.01512 23.2651 11.3145C23.2651 15.1434 24.1602 18.075 24.7617 19.1111C24.9168 19.3747 24.9988 19.675 24.9994 19.9809C25 20.2868 24.9191 20.5873 24.765 20.8516H24.7661ZM23.2651 19.9846C22.4273 18.5464 21.5311 15.2215 21.5311 11.3145C21.5311 9.475 20.8003 7.7108 19.4995 6.41005C18.1988 5.10929 16.4346 4.37853 14.595 4.37853C12.7555 4.37853 10.9913 5.10929 9.69054 6.41005C8.38978 7.7108 7.65903 9.475 7.65903 11.3145C7.65903 15.2226 6.76168 18.5475 5.92502 19.9846H23.2651Z" fill="black"/>
</svg>
