<svg width="24" height="24" viewBox="0 0 24 24" fill="none" xmlns="http://www.w3.org/2000/svg">
<path d="M4.8905 16.5C4.8905 16.3209 4.82188 16.1487 4.69875 16.0187C3.45921 14.7098 2.7 12.9443 2.7 11C2.7 6.96832 5.96832 3.7 10 3.7H14C18.0317 3.7 21.3 6.96832 21.3 11C21.3 15.0317 18.0317 18.3 14 18.3H10C9.5313 18.3 9.07354 18.2559 8.63046 18.1719C8.46627 18.1407 8.29635 18.1693 8.15142 18.2526L5.33989 19.867C5.13989 19.9819 4.8905 19.8375 4.8905 19.6069V16.5Z" stroke="#CCCCCC" stroke-width="1.4" stroke-linecap="round" stroke-linejoin="round"/>
<circle cx="8" cy="11" r="1" fill="#CCCCCC"/>
<circle cx="12" cy="11" r="1" fill="#CCCCCC"/>
<circle cx="16" cy="11" r="1" fill="#CCCCCC"/>
</svg>
