<svg width="29" height="28" viewBox="0 0 29 28" fill="none" xmlns="http://www.w3.org/2000/svg">
<path d="M25.8265 23.0181C24.1759 20.1646 21.6324 18.1185 18.664 17.1485C20.1323 16.2744 21.2731 14.9425 21.9111 13.3573C22.5492 11.7721 22.6493 10.0213 22.196 8.37376C21.7427 6.72619 20.7611 5.27297 19.402 4.23726C18.0429 3.20155 16.3813 2.64063 14.6725 2.64062C12.9637 2.64063 11.3022 3.20155 9.94306 4.23726C8.58392 5.27297 7.60234 6.72619 7.14905 8.37376C6.69577 10.0213 6.79584 11.7721 7.43391 13.3573C8.07198 14.9425 9.21276 16.2744 10.6811 17.1485C7.71267 18.1174 5.1691 20.1635 3.51855 23.0181C3.45802 23.1168 3.41787 23.2266 3.40047 23.3411C3.38307 23.4556 3.38877 23.5723 3.41724 23.6846C3.44571 23.7968 3.49637 23.9022 3.56622 23.9945C3.63608 24.0868 3.72372 24.1642 3.82398 24.2221C3.92423 24.2801 4.03507 24.3173 4.14995 24.3317C4.26483 24.346 4.38143 24.3373 4.49286 24.3059C4.6043 24.2744 4.70831 24.221 4.79877 24.1488C4.88923 24.0765 4.96429 23.9869 5.01954 23.8851C7.06133 20.3564 10.6702 18.2496 14.6725 18.2496C18.6748 18.2496 22.2837 20.3564 24.3255 23.8851C24.3808 23.9869 24.4558 24.0765 24.5463 24.1488C24.6367 24.221 24.7407 24.2744 24.8522 24.3059C24.9636 24.3373 25.0802 24.346 25.1951 24.3317C25.31 24.3173 25.4208 24.2801 25.5211 24.2221C25.6213 24.1642 25.709 24.0868 25.7788 23.9945C25.8487 23.9022 25.8993 23.7968 25.9278 23.6846C25.9563 23.5723 25.962 23.4556 25.9446 23.3411C25.9272 23.2266 25.887 23.1168 25.8265 23.0181ZM8.60351 10.4466C8.60351 9.24625 8.95945 8.07287 9.62632 7.07483C10.2932 6.07678 11.241 5.2989 12.35 4.83955C13.459 4.3802 14.6793 4.26002 15.8565 4.49419C17.0338 4.72836 18.1152 5.30638 18.964 6.15515C19.8127 7.00392 20.3907 8.08531 20.6249 9.26258C20.8591 10.4399 20.7389 11.6601 20.2796 12.7691C19.8202 13.8781 19.0423 14.8259 18.0443 15.4928C17.0462 16.1597 15.8729 16.5156 14.6725 16.5156C13.0634 16.5139 11.5208 15.8739 10.383 14.7361C9.2452 13.5983 8.60523 12.0557 8.60351 10.4466Z" fill="black"/>
</svg>
